<?xml version="1.0" standalone="no"?>
<!DOCTYPE svg PUBLIC "-//W3C//DTD SVG 20010904//EN"
 "http://www.w3.org/TR/2001/REC-SVG-20010904/DTD/svg10.dtd">
<svg version="1.0" xmlns="http://www.w3.org/2000/svg"
 width="200.000000pt" height="85.000000pt" viewBox="0 0 200.000000 85.000000"
 preserveAspectRatio="xMidYMid meet">

<g transform="translate(0.000000,85.000000) scale(0.100000,-0.100000)"
fill="#000000" stroke="none">
<path d="M905 837 c-3 -6 -4 -196 -3 -421 2 -317 6 -410 16 -414 9 -3 12 86
12 422 0 286 -3 426 -10 426 -6 0 -13 -6 -15 -13z"/>
<path d="M2 553 c3 -212 4 -220 30 -275 32 -68 99 -136 165 -169 37 -18 69
-24 140 -27 82 -3 97 -1 151 23 74 33 142 102 179 180 27 59 28 64 31 273 l4
212 -81 0 -81 0 0 -184 c0 -234 -15 -282 -103 -328 -95 -49 -206 -13 -254 82
-22 41 -23 57 -23 237 l0 193 -81 0 -81 0 4 -217z"/>
<path d="M290 605 l0 -156 58 3 57 3 0 150 0 150 -57 3 -58 3 0 -156z"/>
</g>
</svg>
