<?xml version="1.0" standalone="no"?>
<!DOCTYPE svg PUBLIC "-//W3C//DTD SVG 20010904//EN"
 "http://www.w3.org/TR/2001/REC-SVG-20010904/DTD/svg10.dtd">
<svg version="1.0" xmlns="http://www.w3.org/2000/svg"
 width="949.000000pt" height="467.000000pt" viewBox="0 0 949.000000 467.000000"
 preserveAspectRatio="xMidYMid meet">

<g transform="translate(0.000000,467.000000) scale(0.100000,-0.100000)"
fill="#000000" stroke="none">
<path d="M3560 4400 c0 -47 3 -60 15 -60 12 0 15 13 15 60 0 47 -3 60 -15 60
-12 0 -15 -13 -15 -60z"/>
<path d="M7225 4450 c-13 -21 9 -30 77 -30 l71 0 -95 -97 c-51 -54 -139 -146
-193 -204 -55 -59 -105 -107 -111 -108 -10 -1 -81 60 -197 168 l-37 35 -68
-72 c-265 -287 -489 -520 -497 -518 -5 2 -64 61 -129 132 -66 71 -124 130
-130 132 -15 4 -358 -317 -351 -329 4 -5 10 -9 15 -9 5 0 82 68 171 150 130
121 165 148 174 138 7 -7 63 -69 126 -138 62 -69 116 -126 120 -128 6 -2 179
177 471 486 l98 104 29 -24 c16 -12 67 -58 114 -100 46 -43 87 -78 90 -78 3 0
97 96 208 213 111 116 206 214 210 215 5 2 9 -28 9 -67 0 -57 3 -71 15 -71 13
0 15 16 13 103 l-3 102 -97 3 c-59 2 -99 -1 -103 -8z"/>
<path d="M7840 4115 l0 -315 504 0 503 0 5 -93 c4 -79 10 -102 34 -147 102
-188 372 -164 439 40 18 56 21 415 3 470 -30 97 -124 171 -218 174 l-49 1 -3
90 -3 90 -607 3 -608 2 0 -315z m54 260 c-4 -8 -8 -15 -10 -15 -2 0 -4 7 -4
15 0 8 4 15 10 15 5 0 7 -7 4 -15z m533 9 c-3 -3 -12 -4 -19 -1 -8 3 -5 6 6 6
11 1 17 -2 13 -5z m50 0 c-3 -3 -12 -4 -19 -1 -8 3 -5 6 6 6 11 1 17 -2 13 -5z
m543 -3 c0 -5 -9 -7 -20 -4 -11 3 -20 7 -20 9 0 2 9 4 20 4 11 0 20 -4 20 -9z
m-1133 -73 c-3 -7 -5 -2 -5 12 0 14 2 19 5 13 2 -7 2 -19 0 -25z m650 -9 c35
-11 98 -75 113 -115 6 -14 10 -49 10 -78 0 -116 -87 -201 -206 -201 -53 0 -69
4 -105 30 -82 57 -115 142 -89 228 36 123 144 176 277 136z m-257 -26 c-44
-50 -62 -97 -62 -163 0 -67 22 -123 64 -167 l32 -33 -172 0 -172 0 0 195 0
195 163 3 c89 1 166 4 171 5 4 1 -6 -15 -24 -35z m667 -24 c1 -41 -3 -56 -26
-82 -53 -63 -62 -85 -68 -172 l-6 -85 -118 0 -119 0 35 45 c74 97 73 217 -2
304 -18 22 -33 41 -33 43 0 1 76 2 168 0 l168 -3 1 -50z m-1060 -191 c-2 -35
-3 -7 -3 62 0 69 1 97 3 63 2 -35 2 -91 0 -125z m1281 136 c164 -68 177 -289
22 -372 -61 -32 -150 -28 -208 10 -47 32 -92 114 -92 170 0 142 151 246 278
192z m-1281 -301 c-3 -10 -5 -2 -5 17 0 19 2 27 5 18 2 -10 2 -26 0 -35z
m1046 -67 c48 -45 124 -70 189 -63 55 7 128 45 152 79 30 42 28 8 -1 -44 -69
-122 -230 -143 -325 -42 -23 25 -65 104 -55 104 3 0 20 -15 40 -34z m61 -149
c53 -27 146 -28 200 -2 22 10 54 34 73 52 37 38 41 28 14 -33 -50 -109 -186
-150 -293 -87 -38 22 -84 85 -94 128 l-7 30 34 -33 c18 -19 51 -43 73 -55z m6
-116 c86 -39 182 -23 257 43 41 36 45 38 39 16 -25 -86 -111 -150 -200 -150
-91 0 -155 45 -192 137 l-16 38 34 -32 c18 -17 53 -41 78 -52z"/>
<path d="M8443 4271 c-3 -11 -16 -22 -29 -25 -25 -7 -54 -52 -54 -84 0 -27 38
-72 61 -72 16 0 19 -7 19 -51 0 -55 -15 -62 -37 -18 -14 27 -36 32 -41 8 -4
-22 36 -69 59 -69 12 0 19 -7 19 -20 0 -26 30 -26 37 -1 3 11 16 22 29 25 15
4 31 20 41 41 21 43 5 88 -38 105 -26 11 -29 17 -29 57 0 51 16 54 39 9 12
-26 14 -27 29 -12 15 14 14 18 -4 43 -11 16 -30 32 -42 38 -11 5 -23 17 -25
27 -7 24 -28 23 -34 -1z m-3 -107 c0 -46 -13 -55 -33 -22 -13 20 0 68 18 68
11 0 15 -12 15 -46z m70 -99 c15 -18 6 -61 -15 -69 -12 -4 -15 4 -15 39 0 47
9 56 30 30z"/>
<path d="M8068 4139 c-25 -14 -24 -75 1 -89 29 -15 56 -12 74 8 46 50 -16 116
-75 81z m71 -13 c13 -15 5 -62 -11 -72 -5 -3 -16 0 -25 8 -12 9 -15 9 -9 1 11
-19 -9 -16 -25 4 -11 13 -11 15 -1 9 11 -7 11 -4 1 12 -10 15 -10 24 -2 34 16
18 58 21 72 4z"/>
<path d="M8106 4122 c-3 -5 1 -9 9 -9 8 0 12 4 9 9 -3 4 -7 8 -9 8 -2 0 -6 -4
-9 -8z"/>
<path d="M8770 4130 c-24 -24 -25 -38 -4 -68 15 -22 67 -31 78 -14 2 4 -11 7
-31 6 -26 -2 -33 1 -29 13 4 8 1 11 -5 7 -7 -4 -9 4 -7 22 2 16 5 27 8 25 3
-2 15 1 27 7 19 10 24 9 37 -10 13 -18 16 -19 16 -6 0 18 -28 38 -54 38 -9 0
-25 -9 -36 -20z"/>
<path d="M9080 4147 c0 -7 -16 -21 -35 -30 -59 -28 -57 -91 5 -117 26 -11 30
-17 30 -51 0 -22 -2 -39 -5 -39 -3 0 -17 12 -30 26 -15 16 -31 24 -40 21 -23
-10 1 -53 40 -71 18 -9 35 -23 39 -31 7 -19 26 -19 26 0 0 8 16 21 35 29 60
25 62 89 3 121 -32 17 -37 24 -36 52 1 37 12 42 28 13 12 -23 50 -27 50 -5 0
8 -9 23 -20 33 -11 9 -31 27 -44 40 -26 25 -46 29 -46 9z m0 -87 c0 -31 -16
-41 -26 -15 -8 19 2 45 16 45 5 0 10 -13 10 -30z m64 -102 c7 -12 6 -21 -3
-32 -18 -22 -31 -11 -31 25 0 32 16 35 34 7z"/>
<path d="M3294 4339 c-3 -6 12 -30 35 -52 32 -33 43 -39 53 -29 9 9 4 21 -27
52 -42 43 -50 46 -61 29z"/>
<path d="M3795 4310 c-31 -31 -36 -43 -27 -52 10 -10 21 -4 53 29 23 22 38 46
35 52 -11 17 -19 14 -61 -29z"/>
<path d="M2340 4312 c-50 -7 -50 -10 -50 -402 0 -315 2 -369 16 -388 15 -22
17 -22 294 -22 266 0 280 1 290 19 6 13 10 155 10 394 0 318 -2 376 -15 387
-10 9 -84 12 -267 14 -139 0 -264 0 -278 -2z m518 -404 l-3 -373 -260 0 -260
0 -3 373 -2 372 265 0 265 0 -2 -372z"/>
<path d="M2380 3975 c0 -23 3 -25 50 -25 47 0 50 2 50 25 0 23 -3 25 -50 25
-47 0 -50 -2 -50 -25z m85 5 c4 -6 -10 -10 -34 -10 -23 0 -41 5 -41 10 0 6 15
10 34 10 19 0 38 -4 41 -10z"/>
<path d="M2550 3975 c0 -23 3 -25 50 -25 47 0 50 2 50 25 0 23 -3 25 -50 25
-47 0 -50 -2 -50 -25z m90 5 c0 -5 -18 -10 -40 -10 -22 0 -40 5 -40 10 0 6 18
10 40 10 22 0 40 -4 40 -10z"/>
<path d="M2720 3975 c0 -23 3 -25 50 -25 47 0 50 2 50 25 0 23 -3 25 -50 25
-47 0 -50 -2 -50 -25z m90 5 c0 -5 -18 -10 -41 -10 -24 0 -38 4 -34 10 3 6 22
10 41 10 19 0 34 -4 34 -10z"/>
<path d="M2380 3855 c0 -23 3 -25 50 -25 47 0 50 2 50 25 0 23 -3 25 -50 25
-47 0 -50 -2 -50 -25z m87 0 c0 -11 -11 -15 -39 -15 -27 0 -38 4 -38 15 0 11
11 15 38 15 28 0 39 -4 39 -15z"/>
<path d="M2550 3855 c0 -23 3 -25 50 -25 47 0 50 2 50 25 0 23 -3 25 -50 25
-47 0 -50 -2 -50 -25z m90 0 c0 -11 -11 -15 -40 -15 -29 0 -40 4 -40 15 0 11
11 15 40 15 29 0 40 -4 40 -15z"/>
<path d="M2720 3855 c0 -23 3 -25 50 -25 47 0 50 2 50 25 0 23 -3 25 -50 25
-47 0 -50 -2 -50 -25z m90 0 c0 -10 -10 -15 -34 -15 -21 0 -36 6 -40 15 -4 12
3 15 34 15 29 0 40 -4 40 -15z"/>
<path d="M2380 3730 c0 -29 1 -30 50 -30 49 0 50 1 50 30 0 29 -1 30 -50 30
-49 0 -50 -1 -50 -30z m84 1 c3 -5 -12 -11 -34 -13 -28 -2 -40 0 -40 9 0 15
66 18 74 4z"/>
<path d="M2550 3730 c0 -29 1 -30 50 -30 49 0 50 1 50 30 0 29 -1 30 -50 30
-49 0 -50 -1 -50 -30z m90 0 c0 -5 -18 -10 -40 -10 -22 0 -40 5 -40 10 0 6 18
10 40 10 22 0 40 -4 40 -10z"/>
<path d="M2720 3730 c0 -29 1 -30 50 -30 49 0 50 1 50 30 0 29 -1 30 -50 30
-49 0 -50 -1 -50 -30z m90 0 c0 -5 -18 -10 -41 -10 -24 0 -38 4 -34 10 3 6 22
10 41 10 19 0 34 -4 34 -10z"/>
<path d="M2380 3605 c0 -23 3 -25 50 -25 47 0 50 2 50 25 0 23 -3 25 -50 25
-47 0 -50 -2 -50 -25z m80 0 c0 -10 -10 -15 -33 -15 -23 0 -34 5 -34 15 0 10
11 15 34 15 23 0 33 -5 33 -15z"/>
<path d="M2550 3605 l0 -25 135 0 135 0 0 25 0 25 -135 0 -135 0 0 -25z m260
0 c0 -13 -21 -15 -125 -15 -104 0 -125 2 -125 15 0 13 21 15 125 15 104 0 125
-2 125 -15z"/>
<path d="M6078 4309 c-10 -5 -18 -18 -18 -27 1 -18 30 -63 30 -46 0 6 7 19 16
30 8 10 12 13 8 5 -11 -22 -13 -62 -3 -55 5 3 7 9 4 14 -3 5 0 18 7 30 22 34
-10 69 -44 49z m25 -29 c-12 -14 -19 -16 -24 -8 -10 17 -1 28 21 28 19 0 19
-1 3 -20z"/>
<path d="M610 4292 c-61 -30 -60 -28 -58 -449 l3 -383 28 -27 27 -28 395 0
395 0 27 28 28 27 3 380 c2 332 1 384 -13 411 -30 57 -47 59 -442 59 -321 0
-362 -2 -393 -18z m784 -45 c16 -16 23 -36 24 -70 l2 -47 -415 0 -415 0 0 45
c0 35 6 52 25 70 l24 25 366 0 366 0 23 -23z m26 -362 l0 -205 -74 0 c-59 0
-79 -4 -107 -23 -47 -31 -59 -61 -59 -144 l0 -73 -277 0 c-243 0 -279 2 -295
17 -17 15 -18 38 -18 325 l0 308 415 0 415 0 0 -205z m-110 -330 c-47 -47 -87
-85 -90 -85 -3 0 -3 29 -2 65 5 85 27 105 116 105 l61 0 -85 -85z m110 -10 c0
-46 -4 -60 -25 -80 -20 -21 -34 -25 -82 -25 l-58 0 80 80 c44 44 81 80 82 80
2 0 3 -25 3 -55z"/>
<path d="M1384 4212 c3 -5 0 -13 -6 -15 -9 -4 -10 -6 -1 -6 17 -1 25 16 12 25
-7 4 -9 3 -5 -4z"/>
<path d="M820 3920 c-36 -27 -15 -46 28 -25 35 18 64 9 82 -25 13 -25 6 -40
-60 -116 -27 -33 -50 -65 -50 -71 0 -9 22 -13 76 -13 67 0 75 2 72 18 -3 13
-13 17 -46 16 -45 -1 -51 6 -25 27 34 29 73 93 73 121 0 70 -93 112 -150 68z"/>
<path d="M1015 3930 c-13 -22 9 -30 81 -30 41 0 74 -3 74 -7 0 -3 -13 -27 -30
-52 -33 -53 -63 -151 -49 -166 13 -13 24 2 43 64 10 30 31 74 47 98 20 28 29
53 27 71 -3 27 -3 27 -95 30 -55 2 -94 -1 -98 -8z"/>
<path d="M1364 3510 c0 -13 4 -16 10 -10 7 7 7 13 0 20 -6 6 -10 3 -10 -10z"/>
<path d="M1324 3488 l-19 -23 23 19 c21 18 27 26 19 26 -2 0 -12 -10 -23 -22z"/>
<path d="M3491 4232 c-91 -46 -127 -161 -81 -257 12 -25 33 -53 46 -62 24 -15
33 -43 14 -43 -19 0 -12 -95 8 -113 10 -10 22 -17 26 -17 5 0 17 -11 28 -26
25 -31 68 -30 83 4 5 12 17 22 27 22 9 0 24 10 32 22 18 25 22 108 6 108 -19
0 -10 28 14 43 41 28 69 99 64 167 -7 101 -81 170 -183 170 -28 0 -65 -8 -84
-18z m89 -188 c26 -24 46 -34 56 -30 21 8 9 21 -19 21 -15 0 -22 6 -22 20 0
16 7 20 35 20 27 0 37 -6 49 -27 13 -23 13 -30 2 -52 -8 -14 -22 -28 -33 -32
-14 -4 -18 -15 -18 -50 0 -41 -2 -45 -22 -42 -21 3 -23 8 -21 53 2 42 -2 54
-24 77 -15 16 -35 28 -45 28 -29 0 -21 -18 10 -22 26 -3 27 -5 30 -70 3 -63 1
-68 -18 -68 -17 0 -20 6 -20 43 0 36 -4 44 -30 59 -38 22 -42 69 -8 92 34 24
54 20 98 -20z m70 -233 c0 -35 -8 -39 -85 -37 l-60 1 -3 33 -3 32 75 0 76 0 0
-29z"/>
<path d="M6170 4219 c-41 -6 -37 -9 15 -13 17 -1 20 -9 21 -45 1 -24 7 -47 14
-51 11 -7 11 -11 -1 -26 -7 -9 -14 -35 -14 -58 l0 -41 -40 0 c-48 0 -69 -11
-60 -34 15 -37 14 -51 -5 -51 -26 0 -33 15 -18 39 17 28 1 43 -54 50 -38 5
-43 9 -45 34 -2 24 0 26 18 17 12 -7 19 -7 19 -1 0 9 -31 31 -44 31 -3 0 -6
-22 -6 -50 l0 -50 50 1 c28 1 53 -1 56 -3 2 -3 -1 -18 -8 -33 -11 -24 -10 -29
6 -41 13 -9 24 -10 37 -3 20 10 26 44 9 54 -24 15 -6 25 45 25 l55 0 0 53 c0
63 5 71 33 52 25 -17 57 -3 57 25 0 29 -32 42 -59 24 -25 -18 -29 -12 -33 56
l-3 45 -45 -6z m123 -130 c-6 -6 -21 -8 -33 -4 -21 7 -21 8 -4 26 16 18 19 18
33 4 11 -11 12 -18 4 -26z"/>
<path d="M5970 4174 c0 -48 -2 -47 46 -27 17 7 44 -25 44 -53 0 -14 -7 -27
-15 -30 -8 -4 -15 -10 -15 -16 0 -5 5 -6 10 -3 6 4 17 2 24 -4 9 -8 13 -7 13
4 0 8 -4 12 -9 9 -4 -3 -8 0 -8 5 0 6 4 11 9 11 4 0 6 12 4 28 -2 15 -5 36 -6
47 -1 15 -9 20 -32 20 -16 0 -33 -4 -36 -8 -4 -5 -8 4 -11 21 -4 26 -1 30 19
27 13 -1 23 2 23 6 0 5 -13 9 -30 9 -29 0 -30 -2 -30 -46z m90 -24 c0 -5 -2
-10 -4 -10 -3 0 -8 5 -11 10 -3 6 -1 10 4 10 6 0 11 -4 11 -10z"/>
<path d="M4600 4199 c-129 -19 -241 -93 -283 -187 -31 -71 -32 -149 -4 -321
l26 -153 -29 -25 c-50 -42 -55 -78 -29 -210 25 -128 43 -159 94 -169 27 -5 35
-12 39 -35 3 -16 9 -43 12 -60 3 -17 31 -59 65 -97 50 -56 59 -72 59 -105 0
-21 -4 -36 -8 -33 -14 8 -27 -7 -75 -85 l-48 -77 -102 -12 c-254 -29 -474 -63
-523 -81 -73 -27 -134 -91 -167 -171 -14 -35 -80 -234 -147 -443 -66 -209
-127 -395 -134 -413 l-12 -33 -224 336 c-203 304 -226 336 -247 330 -20 -5
-23 -2 -23 25 0 40 -19 77 -88 168 -53 70 -55 76 -59 145 -3 49 10 182 41 422
25 192 43 352 38 356 -10 10 -499 72 -511 65 -5 -3 -14 -51 -21 -106 -11 -89
-22 -120 -32 -90 -5 15 -162 219 -169 220 -4 0 -94 -68 -200 -151 -107 -83
-200 -154 -208 -159 -11 -6 47 -87 242 -339 142 -183 257 -340 257 -351 0 -10
9 -21 19 -25 16 -5 53 -45 83 -89 5 -7 11 -7 20 2 6 6 15 12 19 12 3 0 62 -72
130 -161 80 -104 123 -168 121 -181 -2 -11 29 -65 79 -136 135 -192 332 -459
428 -582 l90 -115 -375 -6 c-265 -4 -378 -9 -386 -17 -7 -7 -41 -12 -78 -12
l-65 0 -90 90 c-49 50 -95 88 -101 86 -13 -5 -7 31 8 51 11 14 2 33 -14 33 -6
0 -17 -8 -24 -17 -11 -16 -44 13 -320 287 -410 407 -390 390 -442 390 -35 0
-55 -18 -389 -353 -315 -314 -354 -356 -360 -390 l-6 -39 494 -494 c488 -489
494 -494 534 -494 38 0 48 8 195 150 173 168 196 184 238 168 45 -17 77 -3
111 50 l31 49 76 6 c81 7 139 29 157 59 17 26 37 22 37 -7 0 -32 26 -45 89
-45 43 0 51 -3 51 -19 0 -42 9 -42 472 -39 570 4 509 -18 863 312 l210 195 3
-539 2 -540 805 0 805 0 0 463 1 462 36 -40 c195 -215 265 -283 324 -316 l64
-34 430 -3 c237 -1 477 1 535 5 l105 8 3 28 c3 21 8 27 20 23 47 -15 373 -86
393 -86 36 0 379 167 418 203 56 53 161 179 161 194 0 27 -39 53 -79 53 -30 0
-40 4 -44 20 -14 55 -117 44 -175 -18 -21 -22 -45 -37 -64 -39 -47 -5 -86 -34
-124 -90 -19 -29 -38 -53 -42 -53 -11 1 -96 20 -112 26 -9 3 13 17 56 35 39
16 90 46 112 65 65 56 67 131 4 155 -22 9 -37 5 -94 -25 -81 -42 -149 -56
-287 -57 -58 0 -114 -3 -123 -7 -9 -4 -48 -6 -86 -4 -68 3 -70 4 -76 33 l-5
29 -307 0 -307 0 67 62 c113 103 308 339 439 532 l67 100 -36 37 -36 37 86 30
c94 35 141 62 200 117 l39 37 81 -81 c45 -45 86 -81 91 -81 13 0 1115 1102
1115 1115 0 13 -882 895 -895 895 -13 0 -1115 -1102 -1115 -1115 0 -6 72 -82
159 -169 l159 -159 -34 -32 c-40 -38 -56 -73 -100 -215 -21 -68 -37 -104 -46
-103 -7 1 -87 -91 -177 -203 -90 -113 -167 -201 -171 -197 -4 4 -51 154 -104
333 -54 179 -111 354 -127 389 -74 161 -139 199 -404 234 -99 14 -191 25 -205
25 -14 1 -62 6 -107 12 l-83 12 -46 77 c-47 77 -62 94 -76 85 -4 -3 -8 14 -8
38 0 37 5 49 36 79 51 49 94 127 94 172 0 30 4 37 20 37 62 0 91 42 115 164
25 131 19 178 -29 221 l-22 20 19 280 c19 268 19 282 3 317 -35 73 -34 73
-381 75 -170 0 -339 -3 -375 -8z m697 -54 c11 -8 23 -29 27 -48 3 -18 -3 -159
-14 -312 -20 -274 -21 -280 -48 -315 l-27 -35 -5 201 c-4 174 -7 205 -23 221
-9 11 -15 22 -12 25 3 3 -16 4 -42 3 -31 -2 -94 -21 -179 -57 l-132 -55 -5 41
c-9 68 -33 79 -157 74 -116 -5 -151 -17 -195 -70 -43 -51 -49 -75 -55 -233
l-5 -150 -19 28 c-13 19 -28 85 -47 205 -33 203 -34 230 -14 298 14 48 67 124
86 124 6 0 8 -4 5 -9 -7 -11 21 -8 31 4 4 4 3 5 -4 1 -16 -9 -26 10 -10 22 6
5 23 13 36 17 18 5 22 4 16 -5 -5 -9 -4 -11 4 -6 6 4 9 11 6 16 -12 20 100 28
420 29 285 1 344 -1 362 -14z m-125 -312 c16 -15 18 -35 18 -224 0 -180 2
-209 16 -217 14 -8 15 -31 12 -168 -3 -151 -4 -161 -30 -204 -41 -69 -176
-196 -223 -209 -51 -14 -218 -14 -270 0 -30 8 -61 33 -129 103 -48 50 -94 105
-102 122 -17 40 -22 346 -5 352 7 2 11 57 12 160 1 170 8 205 52 252 37 38 51
41 172 38 l100 -3 5 -50 c4 -41 9 -50 25 -53 11 -1 85 25 165 58 80 32 149 59
154 60 5 0 18 -7 28 -17z m2751 -1435 l-538 -538 -173 173 -172 172 52 8 c29
4 63 14 76 23 42 28 70 132 40 151 -7 4 -91 8 -187 9 l-173 2 -159 158 -159
159 537 537 538 538 427 -427 428 -428 -537 -537z m-3555 1055 c19 -30 25 -58
33 -152 4 -64 9 -119 9 -123 0 -14 -47 -8 -59 6 -14 17 -51 184 -51 230 0 30
23 76 38 76 4 -1 17 -17 30 -37z m988 5 c15 -28 15 -41 5 -98 -31 -168 -41
-190 -83 -190 -20 0 -20 4 -13 121 6 106 10 126 33 160 14 21 29 39 34 39 4 0
15 -14 24 -32z m-3227 -270 l92 -118 -13 -60 c-12 -61 -16 -64 -65 -63 -7 1
-10 -4 -6 -10 4 -7 0 -8 -13 -3 -10 4 -16 4 -12 1 3 -4 0 -21 -7 -38 -9 -21
-10 -39 -4 -55 7 -19 4 -27 -19 -47 -15 -13 -30 -25 -34 -25 -13 0 -9 23 7 44
11 14 12 23 4 33 -16 19 -26 16 -45 -12 -12 -19 -14 -36 -9 -75 6 -46 10 -52
42 -65 46 -19 73 -19 102 2 24 16 24 16 18 -8 -4 -13 -7 -36 -7 -51 0 -23 -5
-28 -24 -28 -13 0 -26 5 -28 12 -3 7 -7 6 -11 -5 -5 -14 0 -17 28 -17 l35 0
-7 -47 c-3 -27 -8 -65 -12 -85 l-6 -37 -228 295 c-125 162 -228 298 -230 303
-2 9 344 282 355 278 3 -1 47 -55 97 -119z m386 16 c77 -9 143 -20 147 -23 4
-3 1 -54 -8 -112 l-14 -107 26 -51 c22 -44 25 -60 19 -104 -10 -78 -22 -111
-55 -142 -17 -16 -30 -37 -30 -47 0 -20 -15 -24 -25 -7 -13 21 -57 30 -86 19
-29 -13 -59 -71 -59 -116 0 -16 -5 -24 -12 -22 -21 7 -21 38 -1 60 18 21 18
21 -4 9 -28 -14 -30 -55 -5 -77 13 -10 17 -24 14 -41 -5 -27 -2 -27 -135 -7
l-37 6 6 51 c3 29 10 80 14 114 7 54 6 67 -16 109 -41 80 -28 177 32 244 30
34 35 47 44 121 14 116 20 139 33 139 7 0 75 -7 152 -16z m-325 -315 c0 -12
-29 -38 -42 -39 -12 0 -9 25 4 38 15 15 38 16 38 1z m2897 -81 c2 -27 -14 -51
-122 -175 -68 -79 -126 -145 -128 -146 -2 -1 -61 64 -129 144 -105 123 -125
151 -121 172 l5 26 41 -27 c38 -26 48 -27 180 -30 150 -4 205 7 242 48 25 27
30 25 32 -12z m-2951 -63 c-3 -8 -18 -15 -33 -15 l-28 1 30 26 c29 25 43 20
31 -12z m2540 -132 c69 -80 128 -151 130 -158 6 -16 -97 -228 -106 -218 -4 4
-60 97 -123 206 l-116 198 37 59 c20 33 40 60 44 60 4 0 64 -66 134 -147z
m498 86 l36 -60 -121 -205 c-67 -112 -123 -203 -125 -201 -15 14 -104 213
-100 222 7 19 256 305 265 305 5 0 25 -27 45 -61z m-616 -293 c64 -109 125
-204 134 -210 26 -16 49 12 100 118 l44 88 42 -90 c49 -103 74 -132 100 -116
9 6 70 100 134 209 64 109 119 199 120 201 5 4 177 -21 183 -27 4 -4 -434
-616 -492 -687 -20 -24 -29 -29 -36 -20 -6 9 -7 7 -3 -6 9 -26 -30 -67 -54
-58 -22 8 -14 -2 -325 426 -135 186 -243 341 -240 345 8 7 133 30 158 27 11 0
57 -68 135 -200z m-2351 172 c-3 -8 -6 -5 -6 6 -1 11 2 17 5 13 3 -3 4 -12 1
-19z m349 -3 c13 -20 15 -47 13 -154 l-4 -130 46 -60 c39 -51 49 -59 59 -46
10 12 7 20 -14 46 -23 27 -24 32 -11 45 12 13 22 75 16 107 -7 41 121 -124
139 -178 13 -38 1 -87 -23 -99 -25 -12 -88 -53 -152 -100 -37 -27 -71 -44 -75
-40 -31 32 -240 311 -240 321 0 16 42 27 70 18 15 -5 20 -13 18 -33 -2 -17 2
-27 13 -30 13 -2 20 26 42 164 15 92 32 173 38 181 18 21 47 15 65 -12z m91 3
c-3 -8 -6 -5 -6 6 -1 11 2 17 5 13 3 -3 4 -12 1 -19z m1850 -397 c305 -424
319 -440 371 -410 19 11 549 726 592 798 13 24 356 -30 423 -67 103 -56 132
-119 273 -589 59 -200 110 -363 113 -362 3 0 85 99 181 220 96 120 177 219
180 218 3 0 68 -60 144 -134 l140 -134 -49 -73 c-120 -183 -365 -476 -459
-550 -130 -104 -219 -104 -336 0 -25 21 -130 157 -234 301 -104 143 -192 261
-195 261 -30 0 -31 -31 -31 -837 l0 -813 -765 0 -765 0 0 754 c0 639 -2 755
-14 765 -12 10 -28 -6 -92 -91 -223 -296 -365 -458 -429 -491 -95 -49 -231
-14 -327 85 -90 92 -275 333 -517 672 -131 184 -140 200 -126 216 16 18 188
137 257 179 l37 22 237 -356 c149 -223 240 -351 245 -343 8 16 230 696 271
833 17 55 38 116 48 135 24 47 98 114 142 129 36 12 321 58 370 60 24 1 56
-39 315 -398z m-1868 224 c0 -5 -4 -3 -9 5 -5 8 -9 22 -9 30 0 16 17 -16 18
-35z m-12 -72 c-3 -10 -5 -2 -5 17 0 19 2 27 5 18 2 -10 2 -26 0 -35z m4563
-3 c0 -51 -35 -76 -116 -84 -189 -18 -190 -19 -159 -60 8 -11 15 -41 15 -67 0
-49 15 -72 31 -48 12 19 11 72 -1 103 -9 24 -7 26 18 26 37 0 219 -179 206
-203 -10 -17 -88 -83 -115 -98 -24 -12 -185 -69 -197 -69 -5 0 -50 41 -100 90
l-91 90 40 128 c48 149 75 198 121 211 18 5 104 10 191 10 l157 1 0 -30z
m-4914 -28 c-12 -13 -18 -13 -30 -2 -24 19 -19 27 15 22 28 -4 29 -6 15 -20z
m-952 -419 c34 -31 186 -181 340 -332 l279 -276 -62 -117 c-63 -121 -72 -152
-45 -162 8 -3 13 -2 10 2 -3 5 6 21 19 36 14 16 27 37 30 47 4 11 11 19 16 19
5 0 8 3 7 8 -4 15 14 52 23 47 5 -3 6 2 2 11 -4 12 -3 15 5 10 7 -4 10 -2 6 7
-2 7 8 26 23 41 15 15 22 26 16 24 -6 -2 -10 2 -10 7 1 6 7 9 14 9 7 -1 11 2
10 6 -1 4 3 8 8 8 11 0 11 -1 0 -36 -5 -19 6 -36 74 -106 45 -45 81 -84 81
-87 0 -2 -52 -3 -115 -1 -63 2 -115 5 -115 7 0 2 16 34 36 69 29 53 33 69 24
83 -11 17 -11 17 -6 1 3 -10 1 -18 -5 -18 -6 0 -7 -4 -4 -10 3 -5 1 -10 -5
-10 -6 0 -9 -4 -5 -9 3 -5 1 -12 -5 -16 -5 -3 -10 -14 -10 -24 0 -9 -8 -26
-17 -37 -10 -10 -19 -31 -20 -46 -2 -27 -1 -28 55 -28 l57 0 -57 -33 c-91 -51
-144 -101 -236 -226 -47 -64 -92 -122 -99 -129 -24 -25 -33 -49 -18 -49 7 0
11 7 8 16 -2 9 1 7 8 -4 6 -11 18 -27 25 -36 12 -13 11 -18 -4 -35 -9 -10 -25
-36 -35 -57 -9 -21 -22 -35 -27 -32 -6 4 -9 2 -8 -3 3 -10 -1 -12 -23 -12 -12
0 -3 53 14 85 6 11 10 25 9 32 -1 6 2 14 8 18 6 4 7 13 1 23 -12 24 -51 205
-51 240 0 46 31 74 149 136 67 34 111 63 111 72 0 21 -25 13 -140 -48 -164
-85 -177 -113 -135 -295 15 -65 33 -127 40 -138 10 -16 10 -24 -2 -42 -9 -13
-17 -40 -19 -60 -3 -21 -6 -46 -8 -55 -8 -36 63 27 99 88 36 62 37 62 75 57
27 -4 48 0 65 11 24 16 45 14 45 -3 0 -16 -292 -296 -312 -299 -31 -5 -988
952 -988 988 0 20 74 100 348 373 210 209 355 347 366 347 11 0 47 -26 80 -57z
m4519 -544 c215 -297 297 -369 410 -354 28 4 204 9 390 11 l337 5 0 -221 0
-221 -434 3 -433 3 -68 35 c-60 30 -90 58 -227 205 l-157 170 -1 305 c0 256 2
302 13 290 8 -8 84 -112 170 -231z m-1793 -48 l0 -158 -182 -170 c-283 -262
-308 -284 -378 -317 l-65 -31 -442 -3 c-244 -1 -443 1 -443 5 0 5 10 13 23 18
22 10 22 13 25 208 l2 197 288 0 288 0 30 -31 c97 -103 224 -143 344 -108 63
18 199 157 369 377 73 94 135 172 137 172 2 0 4 -71 4 -159z m-2082 -48 c-61
-133 -117 -218 -133 -201 -4 4 56 114 101 186 13 20 41 33 32 15z m582 -393
l0 -181 -77 3 -78 3 1 105 c1 58 2 138 3 178 l1 72 75 0 75 0 0 -180z m5138
153 c7 -51 -53 -100 -182 -150 -83 -31 -94 -39 -79 -54 20 -20 158 -49 235
-49 114 0 181 25 266 98 72 62 127 88 162 77 27 -9 25 -18 -12 -62 -107 -127
-126 -142 -307 -229 -102 -50 -187 -84 -205 -84 -17 0 -115 19 -218 42 l-188
43 0 146 c0 131 2 148 18 154 9 4 88 10 175 14 155 7 158 8 225 44 75 40 105
43 110 10z m-5328 -128 c0 -128 -1 -135 -20 -135 -11 0 -27 -11 -35 -24 -23
-35 -75 -56 -135 -56 -46 0 -51 2 -45 18 4 9 10 25 12 35 3 10 15 17 32 17 91
0 203 84 164 123 -3 4 -22 -11 -42 -32 -44 -47 -98 -61 -240 -61 l-99 0 -35
-42 c-88 -107 -145 -158 -176 -158 -25 0 -61 21 -61 36 0 2 45 64 100 138 161
218 257 272 488 275 l92 1 0 -135z m5630 91 c0 -18 -138 -142 -173 -155 l-26
-10 29 49 c50 85 62 100 89 115 34 19 81 19 81 1z m-870 -216 l0 -180 -50 0
-50 0 0 180 0 180 50 0 50 0 0 -180z m666 112 c-15 -30 -76 -82 -95 -82 -22 0
-10 24 33 66 24 24 51 44 60 44 15 0 15 -3 2 -28z m-5686 -145 c0 -16 -88
-159 -103 -169 -15 -10 -19 -10 -36 1 -11 7 -8 17 17 47 34 41 43 99 20 122
-9 9 1 12 45 12 40 0 57 -4 57 -13z m-124 -31 c8 -20 -18 -65 -59 -105 -33
-31 -37 -32 -56 -19 -20 14 -20 16 35 76 58 64 71 72 80 48z"/>
<path d="M4806 3902 c5 -4 18 -18 27 -32 9 -13 17 -20 17 -14 0 16 -30 54 -43
54 -8 0 -9 -3 -1 -8z"/>
<path d="M7157 3172 c-191 -191 -347 -352 -347 -357 0 -15 663 -675 678 -675
6 0 12 6 12 13 0 6 -146 158 -325 337 l-325 325 345 345 c190 190 343 349 339
353 -4 4 -12 7 -18 7 -6 0 -167 -156 -359 -348z"/>
<path d="M7235 3130 c-15 -24 12 -30 135 -30 l129 0 3 -102 3 -103 148 -3 147
-3 0 -54 c0 -30 3 -55 6 -55 7 0 298 120 303 126 2 2 -7 8 -20 13 -13 5 -84
34 -156 65 l-133 55 0 -55 0 -54 -135 0 -134 0 -3 103 -3 102 -142 3 c-89 2
-144 -1 -148 -8z m676 -176 c35 -15 75 -31 89 -36 23 -9 17 -13 -69 -49 -51
-21 -95 -39 -96 -39 -2 0 -3 34 -3 75 0 41 3 75 7 75 4 0 36 -12 72 -26z"/>
<path d="M7072 2917 l-102 -103 49 -48 49 -48 97 101 c54 55 101 103 103 106
6 5 -77 95 -88 95 -3 0 -51 -46 -108 -103z m148 45 l39 -37 -34 -34 c-20 -20
-39 -30 -46 -25 -8 4 -9 3 -5 -5 5 -7 -15 -33 -49 -68 l-57 -56 -39 40 -40 39
93 92 c51 50 94 92 96 92 1 0 20 -17 42 -38z"/>
<path d="M7144 2958 l-19 -23 23 19 c12 11 22 21 22 23 0 8 -8 2 -26 -19z"/>
<path d="M7175 2931 c-3 -5 -2 -12 3 -15 5 -3 9 1 9 9 0 17 -3 19 -12 6z"/>
<path d="M7109 2903 c-13 -16 -12 -17 4 -4 9 7 17 15 17 17 0 8 -8 3 -21 -13z"/>
<path d="M7082 2864 c-7 -8 -8 -14 -3 -14 10 0 25 19 20 25 -2 1 -10 -3 -17
-11z"/>
<path d="M7202 2727 l-72 -73 48 -47 48 -47 74 75 74 75 -44 45 c-24 25 -47
45 -50 45 -3 0 -38 -33 -78 -73z m89 51 c1 -7 1 -17 0 -21 -1 -5 3 -6 9 -2 6
4 23 -5 37 -19 l26 -27 -20 -19 c-12 -10 -24 -16 -27 -13 -3 4 -6 0 -6 -8 0
-8 -18 -32 -41 -54 l-41 -38 -41 41 -41 41 26 23 c14 13 34 30 44 39 11 8 28
27 39 42 21 29 34 34 36 15z"/>
<path d="M7407 2612 l-117 -118 48 -47 47 -47 119 119 118 118 -25 24 c-13 13
-35 34 -48 46 l-25 23 -117 -118z m157 54 c-1 -9 3 -13 8 -10 6 4 14 0 19 -7
10 -16 -19 -52 -34 -42 -5 3 -7 2 -4 -4 7 -11 -72 -90 -86 -85 -5 1 -6 -1 -3
-6 3 -5 -14 -27 -38 -50 l-43 -41 -39 40 -39 40 58 55 c32 30 63 51 69 48 7
-5 8 -2 4 5 -9 13 51 74 64 66 4 -3 14 3 21 13 13 16 13 16 -6 2 -19 -14 -19
-14 -6 3 12 15 16 16 35 3 12 -8 20 -21 20 -30z"/>
<path d="M7339 2507 c6 -8 7 -18 3 -22 -4 -5 -1 -5 6 -1 10 6 10 11 1 22 -6 8
-14 14 -16 14 -3 0 0 -6 6 -13z"/>
<path d="M7416 2503 c-6 -14 -5 -15 5 -6 7 7 10 15 7 18 -3 3 -9 -2 -12 -12z"/>
<path d="M7607 2498 l-158 -161 48 -49 48 -48 162 162 163 163 -47 47 c-26 27
-50 48 -53 47 -3 0 -76 -73 -163 -161z m211 98 l32 -30 -31 -32 c-18 -18 -36
-31 -41 -28 -5 3 -7 1 -6 -5 4 -15 -123 -142 -135 -134 -6 3 -7 2 -4 -4 3 -5
-15 -31 -41 -56 l-48 -47 -32 33 c-18 18 -29 37 -25 41 4 4 -1 4 -12 0 -19 -7
-19 -6 -2 12 15 16 19 17 27 4 5 -8 10 -12 10 -8 0 3 3 15 6 25 5 15 4 15 -5
3 -6 -8 -11 -10 -11 -4 0 18 28 37 41 28 8 -5 9 -3 5 5 -5 7 0 21 10 32 21 24
35 25 28 2 -5 -15 -4 -15 4 -3 6 8 8 18 5 23 -8 13 169 187 182 179 5 -3 25
-20 43 -36z"/>
<path d="M7769 2583 c-13 -16 -12 -17 4 -4 16 13 21 21 13 21 -2 0 -10 -8 -17
-17z"/>
<path d="M7799 2563 c-13 -17 -13 -17 6 -3 11 8 22 16 24 17 2 2 0 3 -6 3 -6
0 -17 -8 -24 -17z"/>
<path d="M7799 2533 c-13 -16 -12 -17 4 -4 9 7 17 15 17 17 0 8 -8 3 -21 -13z"/>
<path d="M7665 2519 c-4 -6 -5 -12 -2 -15 2 -3 7 2 10 11 7 17 1 20 -8 4z"/>
<path d="M7720 2506 c0 -3 9 -10 20 -16 11 -6 20 -8 20 -6 0 3 -9 10 -20 16
-11 6 -20 8 -20 6z"/>
<path d="M7721 2457 c-13 -21 -12 -21 5 -5 10 10 16 20 13 22 -3 3 -11 -5 -18
-17z"/>
<path d="M7611 2447 c2 -1 15 -11 29 -22 l25 -20 -19 23 c-11 12 -24 22 -29
22 -6 0 -8 -1 -6 -3z"/>
<path d="M7660 2400 c-8 -5 -12 -12 -9 -15 4 -3 12 1 19 10 14 17 11 19 -10 5z"/>
<path d="M7537 2313 c3 -7 6 -13 8 -13 1 0 7 6 13 13 8 10 6 13 -7 13 -11 0
-17 -6 -14 -13z"/>
<path d="M7564 2298 l-19 -23 23 19 c12 11 22 21 22 23 0 8 -8 2 -26 -19z"/>
<path d="M1937 3083 c-16 -15 -6 -63 14 -73 11 -7 23 -9 26 -6 3 3 -2 8 -11
12 -9 3 -13 11 -9 17 3 6 1 7 -5 3 -8 -5 -11 0 -9 16 3 17 11 23 28 23 20 0
24 -5 24 -32 0 -23 3 -29 12 -22 11 10 10 39 -2 59 -7 11 -58 14 -68 3z"/>
<path d="M2076 3010 c-82 -25 -146 -112 -146 -200 0 -69 41 -144 97 -176 36
-22 47 -24 56 -14 9 10 9 11 0 6 -21 -12 -52 12 -49 37 2 16 -3 23 -16 24 -16
2 -17 0 -3 -14 26 -25 7 -28 -20 -3 -26 25 -34 46 -12 34 6 -4 1 5 -13 20 -21
24 -25 37 -24 89 1 62 16 107 35 107 6 0 7 -5 3 -12 -4 -7 -3 -8 5 -4 9 6 9
11 1 21 -26 31 109 93 179 80 26 -4 32 -3 21 4 -18 13 -74 13 -114 1z"/>
<path d="M2471 3118 c-16 -42 15 -73 57 -57 19 7 23 15 20 41 -3 29 -7 33 -36
36 -26 3 -34 -1 -41 -20z m67 -15 c2 -13 0 -24 -5 -24 -46 -8 -53 -5 -53 16 0
28 9 37 35 33 12 -2 21 -12 23 -25z"/>
<path d="M2357 2909 c-10 -6 -22 -22 -27 -35 -6 -14 -18 -24 -30 -24 -25 0
-27 -26 -2 -33 12 -2 22 -17 25 -36 5 -24 15 -35 41 -46 42 -18 77 -8 102 30
12 18 25 25 48 25 45 0 63 -14 47 -34 -8 -9 -22 -16 -32 -16 -11 0 -19 -7 -19
-15 0 -24 48 -18 75 10 14 13 25 28 25 33 0 6 8 9 17 8 25 -2 28 30 3 37 -11
3 -20 13 -20 24 0 11 -11 30 -24 42 -35 33 -93 26 -121 -14 -18 -27 -25 -30
-63 -27 -34 3 -43 7 -40 20 2 9 14 19 28 22 33 8 40 40 8 40 -13 0 -31 -5 -41
-11z m201 -55 c35 -24 27 -37 -19 -31 -49 6 -56 12 -39 32 16 19 30 19 58 -1z
m-119 -60 c8 -8 -22 -34 -40 -34 -19 0 -49 25 -49 42 0 9 78 2 89 -8z"/>
<path d="M4885 2239 c-4 -6 -5 -12 -2 -15 2 -3 7 2 10 11 7 17 1 20 -8 4z"/>
<path d="M4760 2214 c0 -3 9 -24 20 -47 20 -40 20 -45 5 -125 -21 -111 -13
-116 10 -6 17 80 17 88 1 121 -9 19 -14 38 -11 43 3 4 -2 10 -10 14 -8 3 -15
3 -15 0z"/>
<path d="M4896 2212 c-4 -7 -4 -12 0 -12 4 0 -1 -9 -12 -21 -21 -23 -23 -77
-5 -158 5 -25 13 -64 17 -86 3 -22 9 -35 11 -28 2 7 -3 49 -12 94 -21 104 -21
143 0 175 9 14 15 30 12 37 -2 8 -5 8 -11 -1z"/>
<path d="M4760 1921 c0 -11 9 -21 23 -24 21 -6 21 -5 3 8 -10 7 -15 18 -11 24
3 6 1 11 -4 11 -6 0 -11 -8 -11 -19z"/>
<path d="M1045 1390 c-233 -233 -286 -290 -271 -296 14 -5 78 53 297 272 153
153 279 284 279 291 0 6 -4 14 -8 17 -5 3 -138 -125 -297 -284z"/>
<path d="M1175 1260 c-233 -233 -286 -290 -271 -296 14 -5 78 53 297 272 153
153 279 284 279 291 0 6 -4 14 -8 17 -5 3 -138 -125 -297 -284z"/>
<path d="M1301 1136 c-253 -254 -298 -306 -260 -306 15 0 570 562 566 574 -2
5 -8 11 -13 13 -5 2 -137 -125 -293 -281z"/>
<path d="M1365 940 c-175 -175 -217 -222 -207 -232 10 -10 57 32 232 207 121
121 219 224 217 229 -2 6 -7 11 -13 13 -5 2 -108 -96 -229 -217z"/>
<path d="M1884 993 c-3 -12 -11 -20 -17 -19 -7 2 -9 1 -4 -1 4 -3 4 -10 0 -16
-4 -7 -8 -16 -8 -22 0 -5 -9 -9 -20 -7 -16 2 -17 1 -5 -7 8 -5 18 -7 22 -5 14
9 50 86 43 92 -3 3 -8 -3 -11 -15z"/>
<path d="M1785 910 c-20 -40 -34 -75 -31 -78 3 -3 6 0 6 7 0 7 4 10 9 6 5 -3
13 0 17 6 5 8 3 9 -6 4 -8 -5 -11 -3 -8 6 3 8 10 14 16 14 5 0 14 4 19 9 5 5
2 6 -6 1 -10 -6 -12 -2 -6 16 4 13 14 35 22 47 8 13 12 26 9 29 -2 3 -21 -27
-41 -67z"/>
<path d="M1675 823 c-39 -10 -45 -23 -45 -99 0 -73 11 -95 26 -51 5 12 7 41 5
64 -2 38 0 43 24 49 37 9 42 -2 16 -37 -13 -17 -21 -32 -19 -34 6 -7 45 59 52
88 6 23 3 27 -16 26 -13 -1 -32 -4 -43 -6z"/>
<path d="M1613 541 c0 -11 5 -18 9 -15 4 3 5 11 1 19 -7 21 -12 19 -10 -4z"/>
<path d="M3182 4068 c3 -9 24 -13 61 -13 79 0 77 19 -2 23 -48 2 -62 0 -59
-10z"/>
<path d="M3843 4068 c2 -9 24 -13 62 -13 38 0 60 4 63 13 3 9 -14 12 -63 12
-49 0 -66 -3 -62 -12z"/>
<path d="M3325 3840 c-30 -31 -36 -43 -27 -52 9 -9 21 -3 52 27 40 39 51 65
27 65 -7 0 -31 -18 -52 -40z"/>
<path d="M3760 3867 c0 -7 18 -31 40 -52 31 -30 43 -36 52 -27 9 9 3 21 -27
52 -39 40 -65 51 -65 27z"/>
<path d="M5892 3455 c-109 -24 -193 -91 -250 -198 -24 -47 -27 -62 -27 -157 0
-96 2 -110 28 -158 124 -235 420 -278 596 -87 140 154 129 374 -26 515 -88 80
-204 111 -321 85z m223 -60 c68 -33 138 -110 164 -181 21 -55 29 -167 13 -190
-5 -8 -53 5 -157 40 l-150 51 -22 135 c-32 198 -35 184 38 177 35 -3 83 -16
114 -32z m-195 -132 c12 -82 23 -152 24 -158 0 -5 -5 -9 -12 -7 -8 1 -11 -2
-7 -7 3 -6 -17 -42 -46 -81 -41 -57 -54 -68 -65 -59 -9 7 -14 8 -14 1 0 -6 5
-12 12 -14 8 -3 2 -19 -18 -46 l-31 -41 -30 32 c-80 83 -105 219 -63 331 26
69 104 160 129 151 8 -3 12 -3 8 2 -9 8 50 42 74 43 13 0 20 -28 39 -147z
m114 -327 c36 -68 66 -128 66 -134 0 -17 -98 -35 -159 -29 -69 6 -143 35 -139
53 3 12 159 234 165 234 1 0 31 -56 67 -124z m120 84 l127 -41 -23 -40 c-22
-39 -100 -119 -115 -119 -11 1 -135 240 -124 240 5 0 65 -18 135 -40z"/>
<path d="M5766 3328 c3 -4 11 -5 19 -1 21 7 19 12 -4 10 -11 0 -18 -5 -15 -9z"/>
<path d="M5736 3253 c-6 -14 -5 -15 5 -6 7 7 10 15 7 18 -3 3 -9 -2 -12 -12z"/>
<path d="M5701 3247 c-8 -10 -7 -14 2 -14 8 0 14 6 14 14 0 7 -1 13 -2 13 -2
0 -8 -6 -14 -13z"/>
<path d="M5853 3063 c4 -3 1 -13 -6 -22 -11 -14 -10 -14 5 -2 16 12 16 31 1
31 -4 0 -3 -3 0 -7z"/>
<path d="M5869 3033 c-13 -16 -12 -17 4 -4 9 7 17 15 17 17 0 8 -8 3 -21 -13z"/>
<path d="M5720 2961 c0 -10 19 -25 25 -20 1 2 -3 10 -11 17 -8 7 -14 8 -14 3z"/>
<path d="M5764 2949 c0 -10 2 -16 5 -14 2 3 11 -1 20 -8 14 -10 14 -10 3 5 -8
9 -11 21 -8 26 3 5 0 9 -7 9 -7 0 -13 -8 -13 -18z"/>
<path d="M3375 3351 c-150 -54 -267 -194 -282 -336 -7 -67 -23 -71 -73 -20
-32 33 -37 35 -101 35 -37 0 -70 -4 -74 -9 -3 -6 9 -26 26 -46 l32 -36 -32
-33 c-17 -18 -28 -35 -25 -39 4 -4 39 -7 79 -7 68 0 73 2 104 34 26 27 40 34
65 32 29 -2 31 -6 37 -47 4 -24 5 -47 2 -51 -2 -5 0 -8 5 -8 6 0 12 -10 16
-23 3 -13 17 -40 31 -61 24 -36 26 -56 3 -56 -5 0 -8 7 -4 15 3 8 0 14 -7 12
-15 -3 -57 83 -73 153 l-14 55 5 -49 c10 -102 87 -222 179 -281 224 -142 519
-63 626 167 112 239 -2 514 -247 599 -74 25 -208 25 -278 0z m270 -11 c17 -7
35 -14 40 -14 29 -4 63 -30 62 -47 -1 -11 -2 -19 -4 -19 -4 0 -78 44 -83 50
-3 3 -12 6 -20 7 -8 1 -38 6 -67 12 -54 11 -134 3 -188 -20 -16 -6 -41 -12
-55 -13 -15 -1 -25 -7 -25 -16 0 -8 -7 -16 -15 -16 -8 -1 -19 -3 -25 -4 -5 -1
-14 -2 -20 0 -5 1 -4 -4 2 -11 17 -17 -4 -44 -22 -29 -10 8 -15 8 -21 -1 -4
-7 -3 -9 4 -5 6 3 13 2 17 -4 3 -5 2 -10 -4 -10 -5 0 -13 -9 -16 -21 -6 -17
-9 -18 -23 -7 -13 11 -14 11 -8 0 9 -15 -21 -105 -32 -98 -4 2 -8 -21 -9 -52
l-2 -57 13 55 c26 116 108 219 214 268 50 24 69 27 157 27 90 0 106 -3 160
-29 76 -38 143 -105 181 -181 26 -55 29 -69 29 -165 0 -96 -3 -110 -28 -158
-59 -112 -142 -178 -262 -208 -57 -15 -79 -16 -133 -6 -162 27 -297 159 -321
312 l-8 50 38 0 c36 0 38 -2 44 -39 10 -57 55 -144 91 -175 158 -132 393 -88
481 92 38 78 40 192 4 266 -48 98 -140 162 -247 173 -149 16 -293 -87 -325
-233 l-12 -54 -51 0 c-50 0 -52 1 -54 30 -3 38 34 150 56 168 12 9 12 11 2 6
-8 -4 -4 6 10 22 46 54 91 94 106 94 8 0 13 4 10 9 -5 8 20 21 114 58 43 16
201 12 245 -7z m159 -93 c48 -50 60 -69 92 -133 27 -55 29 -67 29 -174 0 -109
-2 -118 -33 -180 -35 -70 -87 -134 -102 -125 -5 3 -12 0 -16 -6 -5 -8 -2 -10
7 -5 8 4 3 -2 -11 -13 -30 -26 -100 -64 -100 -55 0 4 -7 1 -15 -6 -8 -7 -22
-10 -30 -6 -8 3 -15 2 -15 -3 0 -5 -26 -11 -57 -15 -62 -6 -195 16 -201 34 -2
6 -9 7 -14 4 -7 -5 -8 -2 -3 6 6 10 4 12 -8 7 -10 -3 -17 -2 -17 3 0 6 -3 9
-7 8 -5 -2 -8 2 -8 7 0 6 4 9 8 7 5 -1 5 3 1 10 -4 6 6 2 22 -9 17 -12 42 -25
57 -28 15 -4 24 -12 20 -18 -3 -5 -2 -7 4 -4 5 3 32 3 59 -1 27 -4 67 -4 89 0
22 4 49 10 60 12 36 7 111 45 130 66 10 11 23 20 29 21 14 0 66 72 94 130 68
141 40 313 -71 426 -40 42 -55 73 -35 73 5 0 24 -15 42 -33z m-182 -32 c50
-22 128 -75 112 -75 -4 0 1 -7 12 -15 10 -8 15 -15 11 -15 -5 0 -1 -7 7 -16 9
-8 14 -19 11 -24 -3 -5 0 -10 6 -12 6 -2 12 -16 12 -31 0 -15 3 -30 8 -33 20
-12 -1 -164 -23 -164 -5 0 -7 -3 -5 -7 9 -15 -13 -54 -24 -47 -7 4 -9 3 -5 -4
8 -14 -47 -68 -96 -93 -81 -41 -236 -32 -295 18 -12 10 -29 23 -39 29 -17 10
-12 34 7 34 6 0 7 -5 3 -12 -4 -7 -3 -8 4 -4 7 4 12 2 12 -3 0 -6 5 -10 12 -9
7 2 12 -4 13 -12 0 -9 8 -14 19 -12 12 2 16 -1 10 -9 -5 -8 -3 -10 5 -5 7 5
19 0 27 -10 9 -11 13 -14 11 -9 -3 6 26 10 77 10 56 0 88 5 99 14 10 7 17 10
17 7 0 -4 12 5 28 19 15 14 35 28 45 31 9 3 15 10 12 15 -4 5 -2 9 4 9 5 0 13
9 16 20 4 11 11 17 17 14 7 -4 8 -2 4 5 -4 6 3 25 15 43 13 17 19 29 13 26 -5
-4 -8 22 -8 63 1 38 -2 69 -6 69 -8 0 -25 49 -22 63 1 4 -3 7 -9 7 -5 0 -7 6
-3 13 4 6 3 9 -1 4 -12 -10 -66 43 -58 57 3 6 3 8 -2 4 -4 -4 -26 2 -49 14
-22 11 -57 23 -76 25 -19 2 -47 5 -62 8 -16 2 -28 0 -28 -5 0 -5 -16 -12 -36
-16 -19 -3 -49 -18 -65 -31 -16 -13 -33 -22 -39 -18 -6 4 -7 -1 -3 -11 5 -13
3 -15 -7 -9 -8 5 -11 4 -6 -3 3 -6 -5 -27 -19 -48 -14 -20 -28 -54 -31 -76 -6
-36 -34 -56 -34 -23 0 8 4 15 10 15 5 0 7 7 3 15 -12 34 67 151 129 190 71 44
188 54 260 20z m-36 -30 c106 -31 178 -129 177 -240 0 -70 -18 -117 -63 -169
-51 -58 -103 -80 -185 -80 -109 0 -184 48 -231 149 -33 70 -32 85 10 85 29 0
34 -4 39 -27 15 -74 102 -144 177 -142 164 3 245 186 135 308 -49 54 -113 71
-187 51 -54 -15 -95 -55 -115 -111 -16 -46 -20 -49 -52 -49 -32 0 -33 1 -27
31 11 55 37 98 87 143 70 63 142 79 235 51z m-23 -76 c10 0 15 -5 11 -11 -5
-8 -1 -9 11 -5 12 5 27 -3 51 -29 19 -19 32 -39 29 -44 -3 -5 0 -12 6 -15 12
-8 10 -97 -3 -136 -13 -38 -46 -65 -102 -84 -43 -14 -56 -14 -94 -3 -24 7 -48
21 -53 30 -12 22 -10 22 27 4 36 -18 116 -27 107 -13 -4 6 0 8 10 4 10 -3 17
-2 17 4 0 6 5 7 12 3 7 -4 8 -3 4 4 -4 7 -2 12 3 12 18 0 61 78 61 109 0 30
-28 103 -42 109 -4 2 -4 11 -1 20 4 14 3 15 -5 2 -9 -12 -13 -12 -30 3 -20 19
-97 23 -122 7 -9 -6 -20 -5 -29 3 -12 10 -13 9 -6 -2 6 -10 4 -12 -5 -6 -9 6
-11 4 -6 -4 9 -14 -22 -53 -35 -45 -5 3 -6 -3 -2 -12 4 -11 2 -15 -4 -11 -6 4
-8 -3 -5 -18 3 -18 0 -25 -12 -25 -20 0 -20 11 -2 53 28 65 113 115 171 100
11 -2 28 -5 38 -4z m15 -49 c92 -57 92 -174 -1 -230 -41 -25 -83 -25 -130 0
-35 19 -43 17 -38 -12 0 -5 -3 -8 -9 -8 -13 0 -13 23 1 37 8 8 7 17 -5 34 -9
13 -16 29 -16 36 0 22 50 14 73 -11 32 -35 69 -40 101 -15 52 41 23 122 -44
122 -27 0 -60 -17 -60 -32 0 -4 8 -7 19 -7 11 0 17 5 14 13 -7 17 29 17 46 1
11 -10 13 -10 7 0 -10 16 2 15 20 -2 8 -8 14 -27 14 -42 0 -15 -3 -24 -7 -21
-9 9 -34 -13 -27 -24 3 -5 -9 -9 -26 -9 -21 0 -29 4 -24 12 5 7 3 8 -6 3 -8
-5 -11 -3 -8 6 3 8 16 13 29 12 13 -1 18 1 12 3 -7 3 -13 12 -13 20 0 10 -15
14 -60 14 -67 0 -72 7 -41 54 43 65 117 84 179 46z m-583 -86 c18 -13 16 -14
-21 -14 -36 0 -64 13 -64 30 0 11 64 -2 85 -16z m0 -64 c-12 -13 -31 -20 -53
-20 -34 0 -35 0 -17 20 12 13 31 20 53 20 34 0 35 0 17 -20z m378 -10 c12 -23
13 -31 2 -40 -9 -8 -15 -3 -25 19 -10 25 -8 51 5 51 2 0 10 -13 18 -30z m-123
1 c0 -10 11 -39 25 -65 24 -45 25 -66 4 -66 -5 0 -9 7 -9 15 0 8 -4 15 -8 15
-11 0 -34 68 -27 80 3 5 1 10 -4 10 -6 0 -11 7 -11 15 0 8 7 15 15 15 8 0 15
-8 15 -19z m310 9 c0 -5 -5 -10 -11 -10 -5 0 -7 5 -4 10 3 6 8 10 11 10 2 0 4
-4 4 -10z m-314 -252 c5 -7 3 -8 -6 -3 -8 5 -11 4 -6 -3 4 -6 13 -9 20 -6 20
8 42 -24 27 -39 -9 -9 -18 -5 -41 20 -16 17 -26 34 -23 37 10 9 21 7 29 -6z"/>
<path d="M3790 3233 c11 -18 26 -36 33 -40 9 -5 9 -3 0 9 -7 8 -11 18 -8 21 3
4 2 5 -1 2 -4 -2 -15 6 -26 18 -17 19 -16 17 2 -10z"/>
<path d="M3719 2593 c-13 -16 -12 -17 4 -4 16 13 21 21 13 21 -2 0 -10 -8 -17
-17z"/>
<path d="M3690 3166 c0 -2 8 -10 18 -17 15 -13 16 -12 3 4 -13 16 -21 21 -21
13z"/>
<path d="M8829 3045 c-54 -19 -101 -45 -134 -73 -33 -27 -105 -119 -105 -133
0 -5 26 -9 59 -9 l58 0 17 44 c9 24 32 65 51 91 19 27 32 52 29 57 -3 4 1 6 8
3 7 -3 24 4 38 15 29 23 27 23 -21 5z m-45 -40 c-4 -8 -10 -15 -15 -15 -5 0
-8 -6 -6 -12 1 -7 -4 -12 -11 -10 -8 1 -11 -2 -8 -7 3 -5 -7 -34 -21 -65 -27
-55 -29 -56 -69 -56 l-42 0 11 30 c6 17 29 47 50 68 32 31 39 34 48 22 9 -12
10 -12 5 3 -4 12 4 23 27 37 38 24 38 24 31 5z"/>
<path d="M8692 2941 c-11 -7 -11 -9 0 -14 9 -3 15 1 15 9 0 8 -1 14 -1 14 -1
0 -7 -4 -14 -9z"/>
<path d="M9085 3005 c42 -42 95 -132 95 -162 0 -9 20 -13 65 -13 l64 0 -22 38
c-46 79 -138 151 -225 177 -18 5 -13 -3 23 -40z m65 -17 c0 -5 4 -7 9 -4 5 3
20 -9 35 -26 14 -18 26 -28 26 -22 0 5 14 -11 30 -36 16 -25 30 -48 30 -52 0
-5 -20 -8 -44 -8 -36 0 -46 4 -51 20 -3 11 -3 25 1 31 4 7 3 9 -4 5 -6 -4 -16
8 -23 29 -7 19 -17 35 -23 35 -5 0 -7 3 -3 6 3 3 -9 19 -26 35 l-32 30 38 -18
c20 -9 37 -21 37 -25z"/>
<path d="M8895 3008 c-52 -28 -99 -90 -119 -155 -7 -23 -6 -23 71 -23 l78 0 0
95 c0 52 -2 95 -5 95 -3 0 -14 -6 -25 -12z m15 -88 l0 -80 -60 0 c-53 0 -60 2
-60 19 0 11 7 26 15 35 8 8 15 18 15 23 0 17 66 80 88 83 1 0 2 -36 2 -80z"/>
<path d="M8980 2920 l0 -90 74 0 75 0 -20 48 c-27 65 -90 132 -123 132 -3 0
-6 -40 -6 -90z m90 7 c16 -23 40 -73 40 -85 0 -4 -5 0 -10 8 -6 10 -10 11 -10
3 0 -9 -17 -13 -49 -13 l-50 0 0 81 0 80 31 -26 c17 -15 39 -36 48 -48z"/>
<path d="M503 2912 c-7 -4 -68 -7 -135 -6 -175 3 -186 -14 -82 -127 39 -44 63
-77 60 -86 -4 -8 -6 -27 -6 -41 0 -20 -12 -37 -45 -64 -137 -111 -225 -307
-213 -476 12 -157 99 -256 273 -308 74 -22 246 -24 325 -5 134 33 240 119 273
221 21 65 22 177 2 254 -31 120 -119 259 -201 318 -33 23 -43 37 -42 57 1 14
-2 33 -6 41 -4 11 14 38 59 87 63 69 78 103 53 120 -7 4 -67 9 -133 9 -66 1
-131 4 -145 8 -14 3 -31 3 -37 -2z m-23 -43 c14 2 39 3 55 2 17 0 44 0 60 1
37 1 89 1 155 -2 l49 -2 -71 -79 -72 -79 -130 0 -131 1 -72 78 -73 79 46 0
c25 0 49 3 52 7 4 3 29 3 57 -1 27 -4 61 -6 75 -5z m195 -209 c4 -6 -47 -10
-144 -10 -94 0 -151 4 -151 10 0 6 55 10 144 10 86 0 147 -4 151 -10z m23 -70
c83 -51 172 -173 212 -290 27 -78 31 -193 11 -263 -39 -133 -194 -217 -400
-217 -291 1 -448 163 -397 410 30 140 113 275 220 352 38 28 41 28 180 28 124
0 145 -3 174 -20z"/>
<path d="M500 2450 c0 -12 -7 -20 -17 -20 -36 0 -81 -38 -92 -76 -19 -69 10
-127 70 -146 l39 -11 0 -64 c0 -56 2 -63 20 -63 18 0 20 7 20 64 0 36 -3 67
-7 69 -5 3 -6 -24 -5 -59 2 -35 0 -64 -5 -64 -5 0 -11 26 -12 57 -2 55 -11 86
-24 84 -27 -4 -47 1 -42 9 3 6 17 8 31 6 14 -3 22 -1 19 5 -4 5 -12 9 -19 9
-25 0 -48 37 -44 71 2 25 12 39 37 56 20 13 27 23 18 23 -9 0 -19 -5 -22 -10
-4 -6 -10 -8 -14 -6 -12 8 -42 -64 -36 -84 3 -10 1 -21 -5 -25 -6 -4 -10 10
-10 39 0 26 5 46 11 46 5 0 7 4 4 10 -8 13 56 52 77 46 10 -2 16 1 15 8 -1 6
6 10 16 10 10 -1 17 5 17 17 0 12 -7 19 -20 19 -13 0 -20 -7 -20 -20z m-55
-210 c-3 -5 -10 -10 -14 -10 -10 0 -21 37 -14 44 9 8 35 -23 28 -34z"/>
<path d="M546 2422 c-2 -4 9 -8 26 -9 33 -1 56 -17 40 -27 -6 -3 -17 0 -25 8
-8 8 -19 11 -26 6 -9 -5 -3 -11 19 -18 18 -7 34 -21 37 -32 3 -13 14 -20 29
-20 27 0 27 0 14 34 -15 41 -98 83 -114 58z m102 -57 c9 -19 9 -24 -1 -22 -16
3 -37 30 -31 39 9 14 21 8 32 -17z"/>
<path d="M530 2322 l5 -76 48 -14 c29 -8 45 -17 41 -24 -4 -6 -3 -8 3 -5 15
10 31 -42 25 -81 -6 -46 -20 -40 -18 9 1 46 -28 80 -68 78 -16 -1 -13 -3 10
-10 62 -18 64 -91 4 -127 -16 -10 -27 -22 -24 -25 4 -4 19 2 34 13 15 11 30
17 34 13 9 -9 -14 -33 -33 -33 -9 -1 -27 -7 -41 -15 l-25 -15 30 6 c78 17 123
73 112 142 -8 46 -32 70 -84 84 l-43 10 0 69 c0 37 -3 70 -7 72 -5 3 -6 -29
-3 -71z"/>
<path d="M501 2313 c2 -70 6 -63 11 20 2 26 0 47 -4 47 -5 0 -7 -30 -7 -67z"/>
<path d="M380 2111 c0 -26 49 -77 83 -85 26 -7 37 -15 37 -28 0 -11 7 -18 20
-18 11 0 20 5 20 11 0 5 -4 8 -9 5 -5 -3 -12 1 -15 9 -3 9 -17 20 -31 25 -15
6 -23 15 -20 20 5 8 11 7 21 -1 9 -7 14 -8 14 -1 0 5 -14 15 -31 21 -17 6 -33
20 -36 31 -3 13 -14 20 -29 20 -13 0 -24 -4 -24 -9z m40 -14 c0 -7 9 -18 20
-25 12 -7 18 -17 14 -23 -4 -7 -15 -3 -28 10 -22 21 -31 51 -14 51 4 0 8 -6 8
-13z"/>
<path d="M1110 2800 c0 -6 11 -15 25 -20 23 -9 25 -14 25 -75 0 -37 5 -76 11
-88 17 -34 61 -78 87 -88 30 -11 26 -22 -18 -51 -60 -41 -80 -81 -80 -164 0
-68 -2 -73 -22 -76 -13 -2 -23 -10 -23 -18 0 -13 31 -15 215 -15 184 0 215 2
215 15 0 8 -10 16 -22 18 -21 3 -23 9 -23 65 -1 82 -26 138 -79 173 -23 15
-41 30 -41 35 0 5 13 15 29 24 17 8 43 32 58 52 24 31 29 47 32 114 3 70 5 78
24 81 11 2 22 9 25 16 3 9 -45 12 -217 12 -144 0 -221 -4 -221 -10z m351 -24
c3 -3 2 -40 -2 -82 -6 -73 -8 -79 -40 -105 -95 -78 -97 -88 -31 -132 23 -16
49 -41 56 -56 16 -31 25 -157 10 -154 -5 1 -35 23 -67 49 l-57 46 -55 -42
c-30 -23 -55 -44 -55 -46 0 -11 20 0 60 35 49 44 50 44 115 -13 l40 -35 -122
-1 -123 0 0 58 c0 73 23 118 78 155 56 38 58 73 5 108 -55 36 -76 71 -81 133
-7 88 -11 86 136 86 71 0 131 -2 133 -4z"/>
<path d="M8566 2762 c-14 -52 -15 -98 -5 -157 l11 -65 62 0 61 0 0 120 c0 108
-2 120 -17 120 -10 0 -18 -6 -18 -12 0 -9 -3 -9 -8 -2 -12 18 -81 14 -86 -4z
m80 -5 c3 -3 12 -3 20 0 11 4 14 -12 15 -83 0 -49 2 -96 4 -105 2 -13 -7 -17
-52 -18 -45 -1 -54 2 -49 14 3 8 1 15 -4 15 -6 0 -10 39 -10 91 0 57 4 88 10
84 6 -3 10 -2 10 2 0 10 46 10 56 0z"/>
<path d="M8748 2736 c-2 -63 1 -149 7 -173 4 -17 13 -23 32 -23 14 0 23 3 19
7 -4 4 -15 8 -23 8 -9 0 -18 6 -21 14 -2 8 0 11 5 8 5 -3 10 0 10 8 0 8 -4 12
-9 9 -4 -3 -8 31 -8 76 0 51 4 79 10 75 6 -4 7 1 3 11 -4 10 -2 15 3 11 6 -3
38 -7 72 -8 l62 -2 0 -86 c0 -59 3 -82 10 -75 7 7 10 45 8 93 l-3 83 -87 2
-88 2 -2 -40z"/>
<path d="M8980 2683 l0 -92 -42 -12 c-30 -7 -60 -28 -95 -63 -29 -29 -55 -48
-58 -42 -2 6 -2 1 1 -11 3 -12 -2 -36 -10 -52 -9 -17 -16 -39 -16 -51 0 -26
-4 -25 -46 6 -19 15 -31 31 -27 38 3 6 3 8 -1 4 -8 -7 -29 10 -54 43 -11 15
-9 17 15 17 53 -1 68 -7 82 -38 7 -17 15 -29 18 -27 2 3 -4 21 -13 41 -17 35
-19 36 -76 36 l-59 0 16 -22 c25 -38 106 -117 124 -123 11 -3 21 -25 29 -63
35 -171 200 -263 368 -206 l47 16 81 -81 c66 -66 87 -81 112 -81 17 0 38 8 47
18 32 35 21 61 -68 152 l-85 87 20 44 c24 53 26 130 5 190 -9 24 -13 49 -10
57 2 7 1 11 -4 8 -4 -3 -21 9 -37 25 -16 17 -45 42 -65 54 -35 23 -36 24 -31
79 2 30 2 74 -2 98 l-6 43 -80 0 -80 0 0 -92z m143 67 c11 -10 18 -98 11 -131
-5 -26 -6 -27 -72 -21 -74 5 -83 9 -62 22 10 7 11 10 3 10 -9 0 -13 20 -13 64
0 52 3 65 17 68 26 5 107 -3 116 -12z m12 -214 c89 -41 138 -119 137 -218 0
-108 -66 -194 -172 -225 -192 -56 -362 143 -279 327 27 60 54 88 114 116 66
31 134 31 200 0z m193 -470 c75 -76 89 -106 50 -106 -15 0 -49 26 -95 72 -68
68 -72 73 -56 90 9 10 19 18 22 18 3 0 39 -33 79 -74z"/>
<path d="M9250 2086 c0 -2 8 -10 18 -17 15 -13 16 -12 3 4 -13 16 -21 21 -21
13z"/>
<path d="M9204 2665 c0 -80 2 -99 8 -70 4 22 7 67 5 100 l-2 60 49 6 c58 6 61
2 61 -91 0 -82 -11 -124 -30 -116 -8 3 -15 1 -15 -4 0 -17 38 -11 45 7 12 32
17 137 8 177 l-9 39 -60 1 -60 1 0 -110z"/>
<path d="M8842 2574 c-26 -18 -29 -34 -6 -34 11 0 14 5 10 16 -4 11 -2 15 7
11 8 -3 14 1 14 9 0 17 2 17 -25 -2z"/>
<path d="M9223 2555 c0 -10 10 -15 26 -14 16 0 20 3 11 6 -8 3 -20 10 -26 14
-7 5 -11 3 -11 -6z"/>
<path d="M7638 1889 c-23 -13 -24 -81 -2 -100 13 -11 8 -15 -38 -32 -116 -44
-200 -174 -200 -308 2 -255 270 -414 493 -293 189 103 232 354 89 518 -37 42
-124 96 -155 96 -18 0 -18 1 3 16 30 20 31 88 3 104 -25 13 -171 13 -193 -1z
m172 -49 c0 -18 -7 -20 -80 -20 -73 0 -80 2 -80 20 0 18 7 20 80 20 73 0 80
-2 80 -20z m40 -122 c52 -22 92 -56 83 -71 -3 -6 -1 -7 4 -4 14 9 38 -19 62
-73 15 -32 21 -66 21 -120 0 -125 -58 -217 -169 -268 -46 -21 -63 -24 -135
-20 -92 5 -126 20 -192 80 -112 103 -112 308 -2 415 52 50 96 73 157 82 61 10
116 3 171 -21z"/>
<path d="M7705 1716 c-79 -16 -139 -45 -161 -78 -18 -26 -43 -41 -28 -16 5 7
3 8 -5 4 -7 -5 -10 -14 -8 -21 3 -6 -3 -25 -14 -41 -10 -16 -19 -39 -19 -52 0
-13 -4 -21 -10 -17 -5 3 -7 -7 -4 -27 4 -18 7 -52 8 -75 0 -22 4 -39 8 -37 7
5 51 -72 53 -91 1 -5 6 -9 12 -8 7 2 20 -8 30 -20 10 -13 23 -24 28 -25 21 -4
80 -25 90 -32 13 -8 51 -5 106 11 24 7 47 13 51 13 4 1 13 7 20 14 15 15 32
16 22 0 -4 -7 -3 -8 5 -4 6 4 9 11 6 16 -3 4 8 19 23 32 15 13 31 31 35 41 4
10 11 15 17 12 6 -4 7 1 3 11 -3 10 -2 15 3 12 5 -3 11 8 13 25 8 76 2 209
-10 201 -7 -4 -63 76 -64 91 0 6 -7 10 -15 10 -8 1 -14 7 -12 14 1 7 -2 10 -7
6 -6 -3 -27 2 -48 11 -21 9 -46 16 -57 15 -11 -2 -16 2 -12 8 4 6 6 11 4 10
-2 -1 -30 -6 -63 -13z m136 -37 c90 -45 143 -130 143 -229 0 -175 -171 -297
-338 -241 -48 16 -121 82 -146 131 -47 94 -30 197 48 280 80 87 194 110 293
59z"/>
<path d="M7720 1670 c0 -19 11 -26 23 -14 8 8 -3 34 -14 34 -5 0 -9 -9 -9 -20z"/>
<path d="M7720 1537 c0 -21 -7 -41 -20 -52 -25 -23 -26 -47 -2 -68 25 -22 45
-21 67 3 14 15 31 20 72 20 29 0 53 5 53 10 0 6 -24 10 -53 10 -63 0 -91 23
-92 72 0 17 -6 33 -12 35 -9 3 -13 -7 -13 -30z m20 -87 c0 -5 -4 -10 -10 -10
-5 0 -10 5 -10 10 0 6 5 10 10 10 6 0 10 -4 10 -10z"/>
<path d="M7497 1454 c-9 -10 2 -24 19 -24 8 0 14 7 14 15 0 15 -21 21 -33 9z"/>
<path d="M7933 1448 c2 -7 10 -13 17 -13 7 0 15 6 18 13 2 7 -5 12 -18 12 -13
0 -20 -5 -17 -12z"/>
<path d="M7720 1230 c0 -13 5 -20 13 -17 6 2 12 10 12 17 0 7 -6 15 -12 18 -8
2 -13 -5 -13 -18z"/>
<path d="M8410 1894 c0 -6 71 -230 107 -334 4 -11 10 -8 26 14 60 79 49 78
111 16 l56 -54 32 32 32 32 -57 58 -57 57 45 28 c25 16 47 33 50 37 3 5 -68
32 -157 61 -90 29 -169 54 -175 57 -7 2 -13 0 -13 -4z m50 -25 c0 -5 4 -8 9
-5 10 6 218 -61 238 -76 7 -5 17 -7 23 -3 24 15 7 -5 -25 -29 -20 -15 -34 -24
-33 -19 2 4 -1 9 -7 11 -5 1 -10 -16 -10 -37 -1 -22 3 -37 8 -34 11 7 68 -47
61 -59 -3 -5 0 -7 7 -6 21 5 20 -17 -1 -40 l-21 -23 -40 38 c-22 21 -37 42
-35 49 2 6 -1 11 -7 12 -23 2 -42 8 -57 17 -12 7 -13 6 -3 -6 9 -12 8 -21 -9
-47 -11 -18 -24 -32 -29 -32 -14 0 -11 11 9 34 14 17 14 19 0 8 -21 -17 -23
-14 -70 126 -43 129 -44 132 -23 132 8 0 15 -5 15 -11z"/>
<path d="M8660 1776 c0 -2 7 -7 16 -10 8 -3 12 -2 9 4 -6 10 -25 14 -25 6z"/>
<path d="M8575 1680 c3 -5 8 -10 11 -10 2 0 4 5 4 10 0 6 -5 10 -11 10 -5 0
-7 -4 -4 -10z"/>
<path d="M8654 1639 c-3 -6 -1 -16 6 -22 10 -9 11 -9 5 2 -4 8 -2 17 6 22 9 6
10 9 2 9 -6 0 -15 -5 -19 -11z"/>
<path d="M8676 1602 c-3 -5 1 -9 9 -9 8 0 12 4 9 9 -3 4 -7 8 -9 8 -2 0 -6 -4
-9 -8z"/>
<path d="M8779 1204 c-51 -15 -123 -84 -141 -135 l-10 -29 -179 0 -179 0 0
-369 c0 -357 1 -369 21 -395 l20 -26 543 0 543 0 21 23 c22 23 22 27 22 395
l0 372 -179 0 -179 0 -12 34 c-17 53 -84 113 -143 131 -61 18 -88 18 -148 -1z
m154 -37 c36 -16 107 -89 107 -112 0 -13 -27 -15 -185 -15 -158 0 -185 2 -185
15 0 22 70 96 105 111 39 17 117 17 158 1z m463 -194 c-4 -16 -24 -64 -45
-108 -43 -91 -146 -214 -165 -195 -14 14 -111 13 -124 -3 -6 -6 -12 -28 -14
-46 -4 -42 -22 -49 -153 -57 -69 -4 -106 -1 -160 13 -66 17 -70 20 -73 48 -6
50 -19 58 -87 53 l-60 -5 -61 63 c-59 61 -123 170 -138 237 l-6 27 546 0 546
0 -6 -27z m-1056 -146 c15 -31 56 -83 102 -129 l77 -77 3 -63 3 -63 53 -3 c60
-3 82 8 82 44 0 21 2 22 33 13 85 -25 263 -28 337 -4 15 5 20 2 20 -12 0 -31
21 -43 77 -43 61 0 73 13 73 82 0 41 5 49 73 118 42 44 85 100 102 135 l30 60
3 -284 c2 -254 1 -286 -14 -303 -16 -17 -44 -18 -536 -18 -502 0 -519 1 -538
20 -18 18 -19 34 -19 300 0 154 3 280 7 280 4 -1 18 -24 32 -53z m285 -242 l0
-60 -37 -3 -38 -3 0 59 c0 32 3 62 7 66 4 4 21 6 38 4 30 -3 30 -3 30 -63z
m535 0 l0 -65 -35 0 -35 0 0 65 0 65 35 0 35 0 0 -65z"/>
<path d="M496 785 c-6 -17 -61 -21 -71 -5 -9 14 -36 12 -34 -2 3 -28 -2 -49
-10 -43 -5 3 -12 1 -16 -5 -3 -5 -19 -7 -35 -3 -33 6 -36 2 -19 -25 8 -12 7
-25 -2 -47 -7 -16 -12 -33 -11 -37 1 -5 -3 -8 -8 -8 -6 0 -10 7 -10 16 0 8 -4
12 -10 9 -17 -10 -11 -32 10 -38 24 -6 27 -48 5 -67 -22 -18 -18 -30 10 -30
30 0 48 -30 39 -65 -7 -27 12 -35 34 -13 19 19 62 -6 62 -37 0 -16 6 -25 15
-25 8 0 15 9 15 19 0 12 10 21 27 26 21 5 31 1 44 -16 18 -24 40 -19 32 9 -2
10 5 26 17 37 18 16 24 17 42 6 29 -18 48 2 25 26 -11 13 -13 23 -7 33 17 26
11 35 -7 11 -13 -19 -14 -28 -5 -42 16 -24 15 -36 0 -21 -15 15 -48 16 -48 1
0 -5 -5 -7 -12 -3 -7 4 -8 3 -4 -4 4 -7 2 -12 -3 -12 -6 0 -11 -9 -11 -21 l0
-20 -26 20 c-23 18 -28 19 -47 7 -19 -12 -27 -11 -64 9 -23 13 -40 25 -37 28
9 9 -16 48 -29 46 -7 -1 -22 2 -34 6 -20 6 -20 9 -7 40 9 22 10 36 4 40 -6 3
-10 11 -10 16 0 6 4 7 10 4 5 -3 7 0 4 8 -8 22 14 69 28 61 7 -4 5 2 -5 13
-18 20 -17 21 17 27 35 7 63 37 51 56 -3 6 1 7 9 4 9 -3 14 -10 11 -14 -6 -9
49 -5 66 5 5 4 22 -1 37 -11 15 -10 29 -19 32 -19 15 -2 50 -27 50 -36 0 -6
-4 -8 -9 -4 -5 3 -12 1 -16 -4 -3 -6 4 -8 15 -6 12 2 25 -3 32 -14 7 -12 19
-16 32 -13 20 5 20 5 3 -15 -20 -23 -21 -94 -1 -86 7 2 15 -1 20 -8 4 -7 3
-10 -4 -5 -6 3 -13 2 -17 -4 -3 -5 3 -10 14 -10 27 0 27 21 1 38 -24 14 -27
60 -5 68 23 9 18 34 -8 34 -28 0 -49 33 -41 65 7 27 -12 35 -32 15 -16 -16
-64 9 -64 32 0 22 -25 24 -34 3z m119 -54 c-3 -6 -11 -8 -17 -5 -6 4 -5 9 3
15 16 10 23 4 14 -10z m-254 -251 c4 -36 2 -54 -6 -57 -6 -2 -10 13 -10 32 0
19 3 35 8 35 4 0 8 -4 8 -10z m86 -102 c-3 -8 -6 -5 -6 6 -1 11 2 17 5 13 3
-3 4 -12 1 -19z"/>
<path d="M350 696 c0 -2 8 -10 18 -17 15 -13 16 -12 3 4 -13 16 -21 21 -21 13z"/>
<path d="M439 664 c-20 -6 -39 -46 -39 -82 1 -25 24 -81 32 -74 2 2 11 0 21
-3 9 -4 30 -4 45 -1 15 4 33 8 41 10 8 1 15 11 16 22 2 10 6 27 10 37 4 10 3
17 -4 17 -6 0 -11 -9 -11 -19 0 -22 -44 -61 -70 -61 -34 0 -70 39 -70 75 0 24
7 39 26 54 36 28 60 26 95 -8 18 -18 29 -24 29 -15 0 8 -6 14 -12 14 -10 0
-10 2 0 9 11 6 10 10 -5 16 -23 9 -83 15 -104 9z"/>
<path d="M594 496 c1 -8 5 -18 8 -22 4 -3 5 1 4 10 -1 8 -5 18 -8 22 -4 3 -5
-1 -4 -10z"/>
</g>
</svg>
